<?xml version="1.0" encoding="utf-8"?>
<!-- Generator: Adobe Illustrator 15.0.0, SVG Export Plug-In . SVG Version: 6.00 Build 0)  -->
<!DOCTYPE svg PUBLIC "-//W3C//DTD SVG 1.1//EN" "http://www.w3.org/Graphics/SVG/1.1/DTD/svg11.dtd">
<svg version="1.1" id="Layer_1" xmlns="http://www.w3.org/2000/svg" xmlns:xlink="http://www.w3.org/1999/xlink" x="0px" y="0px"
	 width="1700.791px" height="209.705px" viewBox="0 0 1700.791 209.705" enable-background="new 0 0 1700.791 209.705"
	 xml:space="preserve">
<g>
	<g>
		<polygon fill="#041F54" points="926.844,153.115 926.844,132.534 909.474,132.534 909.474,126.744 895.193,126.744 
			895.193,136.394 878.871,136.394 878.871,158.258 866.034,158.258 866.034,140.254 861.302,140.254 861.302,128.674 
			848.964,128.674 848.964,159.54 834.67,159.54 834.67,149.256 820.202,149.256 820.202,173.049 802.646,173.049 802.646,155.045 
			795.013,155.045 795.013,147.961 786.646,156.328 774.258,156.328 774.258,120.955 750.091,120.955 750.091,154.397 
			713.249,154.397 713.249,58.576 695.73,58.576 695.73,65.648 686.018,65.648 686.018,164.047 679.644,164.047 679.644,120.27 
			667.865,108.479 656.037,120.319 656.037,147.363 645.852,147.363 645.852,128.039 625.869,128.039 625.869,139.606 
			610.641,139.606 610.641,175.627 604.39,175.627 604.39,154.012 596.808,146.43 588.84,154.397 570.238,154.397 570.238,135.336 
			562.394,135.336 554.911,142.831 528.639,142.831 528.639,152.468 524.257,152.468 524.257,144.748 507.05,144.748 507.05,178.19 
			496.553,178.19 496.553,167.26 486.73,167.26 486.73,137.626 478.426,129.321 467.382,129.321 467.382,139.606 414.602,139.606 
			414.602,131.575 406.558,123.532 406.558,113.248 378.046,113.248 378.046,156.328 371.622,156.328 371.622,142.184 
			354.464,142.184 354.464,122.25 317.174,122.25 317.174,149.903 302.108,149.903 302.108,140.901 285.013,140.901 
			285.013,120.059 266.748,120.059 261.979,124.815 261.979,142.831 238.621,142.831 238.621,164.047 227.042,164.047 
			227.042,120.319 223.244,120.319 223.244,87.512 217.081,87.512 217.081,65.648 213.844,65.648 210.619,26.179 207.382,65.648 
			204.045,65.648 204.045,87.512 199.276,87.512 199.276,121.603 193.711,121.603 193.711,162.117 182.543,162.117 182.543,137.041 
			175.594,137.041 175.594,122.885 170.514,122.885 170.514,117.106 164.912,111.492 159.583,116.833 159.583,136.394 
			154.491,136.394 154.491,146.679 144.903,146.679 144.903,161.47 130.124,161.47 130.124,156.328 113.938,156.328 
			113.938,146.679 96.582,146.679 96.582,153.763 85.649,153.763 85.649,159.54 71.493,159.54 71.493,196.208 64.745,196.208 
			64.745,209.704 933.816,209.704 933.268,153.115 		"/>
		<rect x="343.209" y="127.628" fill="#FFFFFF" width="6.113" height="2.59"/>
		<rect x="343.209" y="133.742" fill="#FFFFFF" width="6.113" height="2.589"/>
		<rect x="343.209" y="139.855" fill="#FFFFFF" width="6.113" height="2.591"/>
		<rect x="277.506" y="124.74" fill="#FFFFFF" width="3.486" height="2.589"/>
		<rect x="277.506" y="130.854" fill="#FFFFFF" width="3.486" height="2.591"/>
		<rect x="277.506" y="136.979" fill="#FFFFFF" width="3.486" height="2.59"/>
		<rect x="270.271" y="124.74" fill="#FFFFFF" width="3.486" height="2.589"/>
		<rect x="270.271" y="130.854" fill="#FFFFFF" width="3.486" height="2.591"/>
		<rect x="270.271" y="136.979" fill="#FFFFFF" width="3.486" height="2.59"/>
		<rect x="251.135" y="145.956" fill="#FFFFFF" width="3.486" height="2.59"/>
		<rect x="251.135" y="152.069" fill="#FFFFFF" width="3.486" height="2.59"/>
		<rect x="251.135" y="158.195" fill="#FFFFFF" width="3.486" height="2.59"/>
		<rect x="243.9" y="145.956" fill="#FFFFFF" width="3.486" height="2.59"/>
		<rect x="243.9" y="152.069" fill="#FFFFFF" width="3.486" height="2.59"/>
		<rect x="243.9" y="158.195" fill="#FFFFFF" width="3.486" height="2.59"/>
		<rect x="272.138" y="158.195" fill="#FFFFFF" width="3.486" height="2.59"/>
		<rect x="264.905" y="152.069" fill="#FFFFFF" width="3.486" height="2.59"/>
		<rect x="264.905" y="158.195" fill="#FFFFFF" width="3.486" height="2.59"/>
		<rect x="293.156" y="152.069" fill="#FFFFFF" width="3.486" height="2.59"/>
		<rect x="293.156" y="158.195" fill="#FFFFFF" width="3.486" height="2.59"/>
		<rect x="285.91" y="152.069" fill="#FFFFFF" width="3.486" height="2.59"/>
		<rect x="285.91" y="158.195" fill="#FFFFFF" width="3.486" height="2.59"/>
		<rect x="314.161" y="152.069" fill="#FFFFFF" width="3.486" height="2.59"/>
		<rect x="314.161" y="158.195" fill="#FFFFFF" width="3.486" height="2.59"/>
		<rect x="306.914" y="158.195" fill="#FFFFFF" width="3.486" height="2.59"/>
		<rect x="335.165" y="152.069" fill="#FFFFFF" width="3.486" height="2.59"/>
		<rect x="327.931" y="152.069" fill="#FFFFFF" width="3.486" height="2.59"/>
		<rect x="327.931" y="158.195" fill="#FFFFFF" width="3.486" height="2.59"/>
		<rect x="356.17" y="152.069" fill="#FFFFFF" width="3.486" height="2.59"/>
		<rect x="356.17" y="158.195" fill="#FFFFFF" width="3.486" height="2.59"/>
		<rect x="348.936" y="152.069" fill="#FFFFFF" width="3.486" height="2.59"/>
		<rect x="176.342" y="143.143" fill="#FFFFFF" width="3.486" height="2.591"/>
		<rect x="176.342" y="149.256" fill="#FFFFFF" width="3.486" height="2.59"/>
		<rect x="176.342" y="155.369" fill="#FFFFFF" width="3.486" height="2.59"/>
		<rect x="169.095" y="143.143" fill="#FFFFFF" width="3.486" height="2.591"/>
		<rect x="169.095" y="149.256" fill="#FFFFFF" width="3.486" height="2.59"/>
		<rect x="169.095" y="155.369" fill="#FFFFFF" width="3.486" height="2.59"/>
		<rect x="83.608" y="164.271" fill="#FFFFFF" width="3.485" height="2.591"/>
		<rect x="83.608" y="176.511" fill="#FFFFFF" width="3.485" height="2.59"/>
		<rect x="76.361" y="164.271" fill="#FFFFFF" width="3.486" height="2.591"/>
		<rect x="76.361" y="170.385" fill="#FFFFFF" width="3.486" height="2.59"/>
		<rect x="98.088" y="164.271" fill="#FFFFFF" width="3.486" height="2.591"/>
		<rect x="98.088" y="176.511" fill="#FFFFFF" width="3.486" height="2.59"/>
		<rect x="90.842" y="164.271" fill="#FFFFFF" width="3.486" height="2.591"/>
		<rect x="90.842" y="170.385" fill="#FFFFFF" width="3.486" height="2.59"/>
		<rect x="90.842" y="176.511" fill="#FFFFFF" width="3.486" height="2.59"/>
		<rect x="112.568" y="164.271" fill="#FFFFFF" width="3.486" height="2.591"/>
		<rect x="112.568" y="170.385" fill="#FFFFFF" width="3.486" height="2.59"/>
		<rect x="105.322" y="170.385" fill="#FFFFFF" width="3.486" height="2.59"/>
		<rect x="105.322" y="176.511" fill="#FFFFFF" width="3.486" height="2.59"/>
		<rect x="127.049" y="164.271" fill="#FFFFFF" width="3.486" height="2.591"/>
		<rect x="119.802" y="164.271" fill="#FFFFFF" width="3.486" height="2.591"/>
		<rect x="119.802" y="170.385" fill="#FFFFFF" width="3.486" height="2.59"/>
		<rect x="119.802" y="176.511" fill="#FFFFFF" width="3.486" height="2.59"/>
		<rect x="381.93" y="117.331" fill="#FFFFFF" width="4.607" height="2.59"/>
		<rect x="381.93" y="123.445" fill="#FFFFFF" width="4.607" height="2.59"/>
		<rect x="381.93" y="129.57" fill="#FFFFFF" width="4.607" height="2.59"/>
		<rect x="388.953" y="117.331" fill="#FFFFFF" width="4.606" height="2.59"/>
		<rect x="388.953" y="123.445" fill="#FFFFFF" width="4.606" height="2.59"/>
		<rect x="388.953" y="129.57" fill="#FFFFFF" width="4.606" height="2.59"/>
		<rect x="395.975" y="117.331" fill="#FFFFFF" width="4.607" height="2.59"/>
		<rect x="395.975" y="123.445" fill="#FFFFFF" width="4.607" height="2.59"/>
		<rect x="395.975" y="129.57" fill="#FFFFFF" width="4.607" height="2.59"/>
		<rect x="533.234" y="147.251" fill="#FFFFFF" width="4.605" height="2.59"/>
		<rect x="533.234" y="153.364" fill="#FFFFFF" width="4.605" height="2.59"/>
		<rect x="533.234" y="159.478" fill="#FFFFFF" width="4.605" height="2.591"/>
		<rect x="540.257" y="147.251" fill="#FFFFFF" width="4.606" height="2.59"/>
		<rect x="540.257" y="153.364" fill="#FFFFFF" width="4.606" height="2.59"/>
		<rect x="540.257" y="159.478" fill="#FFFFFF" width="4.606" height="2.591"/>
		<rect x="547.279" y="147.251" fill="#FFFFFF" width="4.605" height="2.59"/>
		<rect x="547.279" y="153.364" fill="#FFFFFF" width="4.605" height="2.59"/>
		<rect x="547.279" y="159.478" fill="#FFFFFF" width="4.605" height="2.591"/>
		<rect x="570.873" y="159.478" fill="#FFFFFF" width="4.607" height="2.591"/>
		<rect x="570.873" y="165.604" fill="#FFFFFF" width="4.607" height="2.591"/>
		<rect x="570.873" y="171.717" fill="#FFFFFF" width="4.607" height="2.59"/>
		<rect x="577.895" y="159.478" fill="#FFFFFF" width="4.606" height="2.591"/>
		<rect x="577.895" y="165.604" fill="#FFFFFF" width="4.606" height="2.591"/>
		<rect x="577.895" y="171.717" fill="#FFFFFF" width="4.606" height="2.59"/>
		<rect x="584.93" y="159.478" fill="#FFFFFF" width="4.606" height="2.591"/>
		<rect x="584.93" y="165.604" fill="#FFFFFF" width="4.606" height="2.591"/>
		<rect x="584.93" y="171.717" fill="#FFFFFF" width="4.606" height="2.59"/>
		<rect x="885.121" y="142.433" fill="#FFFFFF" width="4.605" height="2.59"/>
		<rect x="885.121" y="148.546" fill="#FFFFFF" width="4.605" height="2.59"/>
		<rect x="885.121" y="154.659" fill="#FFFFFF" width="4.605" height="2.59"/>
		<rect x="892.143" y="142.433" fill="#FFFFFF" width="4.606" height="2.59"/>
		<rect x="892.143" y="148.546" fill="#FFFFFF" width="4.606" height="2.59"/>
		<rect x="892.143" y="154.659" fill="#FFFFFF" width="4.606" height="2.59"/>
		<rect x="899.166" y="142.433" fill="#FFFFFF" width="4.606" height="2.59"/>
		<rect x="899.166" y="148.546" fill="#FFFFFF" width="4.606" height="2.59"/>
		<rect x="899.166" y="154.659" fill="#FFFFFF" width="4.606" height="2.59"/>
		<rect x="214.699" y="144.909" fill="#FFFFFF" width="2.59" height="5.64"/>
		<rect x="220.815" y="144.911" fill="#FFFFFF" width="2.589" height="5.641"/>
		<rect x="208.581" y="136.306" fill="#FFFFFF" width="2.59" height="5.641"/>
		<rect x="214.697" y="136.308" fill="#FFFFFF" width="2.59" height="5.642"/>
		<rect x="220.812" y="136.311" fill="#FFFFFF" width="2.59" height="5.641"/>
		<rect x="208.579" y="127.704" fill="#FFFFFF" width="2.59" height="5.641"/>
		<rect x="214.694" y="127.706" fill="#FFFFFF" width="2.59" height="5.641"/>
		<rect x="214.701" y="114.278" fill="#FFFFFF" width="2.589" height="5.64"/>
		<rect x="208.583" y="105.675" fill="#FFFFFF" width="2.59" height="5.641"/>
		<rect x="214.698" y="105.677" fill="#FFFFFF" width="2.59" height="5.642"/>
		<rect x="208.58" y="97.073" fill="#FFFFFF" width="2.59" height="5.641"/>
		<rect x="214.696" y="97.076" fill="#FFFFFF" width="2.59" height="5.64"/>
		<rect x="208.587" y="83.646" fill="#FFFFFF" width="2.59" height="5.64"/>
		<rect x="208.584" y="75.044" fill="#FFFFFF" width="2.59" height="5.642"/>
		<rect x="415.399" y="150.787" fill="#FFFFFF" width="4.605" height="2.59"/>
		<rect x="415.399" y="156.9" fill="#FFFFFF" width="4.605" height="2.59"/>
		<rect x="422.422" y="144.661" fill="#FFFFFF" width="4.606" height="2.59"/>
		<rect x="422.422" y="150.787" fill="#FFFFFF" width="4.606" height="2.59"/>
		<rect x="429.456" y="144.661" fill="#FFFFFF" width="4.606" height="2.59"/>
		<rect x="429.456" y="150.787" fill="#FFFFFF" width="4.606" height="2.59"/>
		<rect x="429.456" y="156.9" fill="#FFFFFF" width="4.606" height="2.59"/>
		<rect x="439.043" y="144.661" fill="#FFFFFF" width="4.607" height="2.59"/>
		<rect x="439.043" y="156.9" fill="#FFFFFF" width="4.607" height="2.59"/>
		<rect x="446.065" y="144.661" fill="#FFFFFF" width="4.606" height="2.59"/>
		<rect x="446.065" y="150.787" fill="#FFFFFF" width="4.606" height="2.59"/>
		<rect x="446.065" y="156.9" fill="#FFFFFF" width="4.606" height="2.59"/>
		<rect x="453.088" y="144.661" fill="#FFFFFF" width="4.607" height="2.59"/>
		<rect x="453.088" y="150.787" fill="#FFFFFF" width="4.607" height="2.59"/>
		<rect x="415.399" y="169.127" fill="#FFFFFF" width="4.605" height="2.59"/>
		<rect x="415.399" y="175.24" fill="#FFFFFF" width="4.605" height="2.59"/>
		<rect x="422.422" y="169.127" fill="#FFFFFF" width="4.606" height="2.59"/>
		<rect x="429.456" y="169.127" fill="#FFFFFF" width="4.606" height="2.59"/>
		<rect x="429.456" y="175.24" fill="#FFFFFF" width="4.606" height="2.59"/>
		<rect x="439.043" y="175.24" fill="#FFFFFF" width="4.607" height="2.59"/>
		<rect x="446.065" y="169.127" fill="#FFFFFF" width="4.606" height="2.59"/>
		<rect x="446.065" y="175.24" fill="#FFFFFF" width="4.606" height="2.59"/>
		<rect x="617.95" y="163.836" fill="#FFFFFF" width="4.605" height="2.59"/>
		<rect x="617.95" y="169.949" fill="#FFFFFF" width="4.605" height="2.59"/>
		<rect x="624.984" y="157.722" fill="#FFFFFF" width="4.606" height="2.59"/>
		<rect x="624.984" y="163.836" fill="#FFFFFF" width="4.606" height="2.59"/>
		<rect x="632.007" y="157.722" fill="#FFFFFF" width="4.607" height="2.59"/>
		<rect x="632.007" y="163.836" fill="#FFFFFF" width="4.607" height="2.59"/>
		<rect x="632.007" y="169.949" fill="#FFFFFF" width="4.607" height="2.59"/>
		<rect x="641.594" y="157.722" fill="#FFFFFF" width="4.607" height="2.59"/>
		<rect x="641.594" y="169.949" fill="#FFFFFF" width="4.607" height="2.59"/>
		<rect x="648.616" y="157.722" fill="#FFFFFF" width="4.606" height="2.59"/>
		<rect x="648.616" y="163.836" fill="#FFFFFF" width="4.606" height="2.59"/>
		<rect x="648.616" y="169.949" fill="#FFFFFF" width="4.606" height="2.59"/>
		<rect x="689.693" y="106.685" fill="#FFFFFF" width="2.59" height="4.606"/>
		<rect x="695.809" y="106.687" fill="#FFFFFF" width="2.591" height="4.607"/>
		<rect x="689.695" y="99.659" fill="#FFFFFF" width="2.59" height="4.606"/>
		<rect x="689.698" y="92.635" fill="#FFFFFF" width="2.59" height="4.607"/>
		<rect x="695.814" y="92.638" fill="#FFFFFF" width="2.59" height="4.606"/>
		<rect x="695.814" y="83.05" fill="#FFFFFF" width="2.59" height="4.606"/>
		<rect x="689.688" y="76.023" fill="#FFFFFF" width="2.591" height="4.606"/>
		<rect x="695.804" y="76.025" fill="#FFFFFF" width="2.591" height="4.605"/>
		<rect x="696.189" y="149.346" fill="#FFFFFF" width="2.59" height="4.606"/>
		<rect x="702.304" y="149.349" fill="#FFFFFF" width="2.591" height="4.606"/>
		<rect x="696.191" y="142.321" fill="#FFFFFF" width="2.59" height="4.605"/>
		<rect x="696.194" y="135.297" fill="#FFFFFF" width="2.59" height="4.606"/>
		<rect x="702.309" y="135.299" fill="#FFFFFF" width="2.591" height="4.607"/>
		<rect x="756.779" y="142.322" fill="#FFFFFF" width="2.59" height="4.606"/>
		<rect x="762.895" y="142.325" fill="#FFFFFF" width="2.591" height="4.605"/>
		<rect x="756.781" y="135.298" fill="#FFFFFF" width="2.59" height="4.607"/>
		<rect x="756.771" y="128.274" fill="#FFFFFF" width="2.59" height="4.605"/>
		<rect x="762.887" y="128.276" fill="#FFFFFF" width="2.59" height="4.605"/>
		<rect x="702.298" y="125.711" fill="#FFFFFF" width="2.59" height="4.607"/>
		<rect x="696.184" y="118.685" fill="#FFFFFF" width="2.591" height="4.606"/>
		<rect x="702.301" y="118.687" fill="#FFFFFF" width="2.59" height="4.607"/>
		<rect x="756.914" y="161.246" fill="#FFFFFF" width="4.607" height="2.59"/>
		<rect x="756.914" y="167.359" fill="#FFFFFF" width="4.607" height="2.59"/>
		<rect x="763.936" y="161.246" fill="#FFFFFF" width="4.606" height="2.59"/>
		<rect x="770.959" y="161.246" fill="#FFFFFF" width="4.606" height="2.59"/>
		<rect x="770.959" y="167.359" fill="#FFFFFF" width="4.606" height="2.59"/>
		<rect x="780.546" y="167.359" fill="#FFFFFF" width="4.607" height="2.59"/>
		<rect x="787.568" y="161.246" fill="#FFFFFF" width="4.605" height="2.59"/>
		<rect x="787.568" y="167.359" fill="#FFFFFF" width="4.605" height="2.59"/>
		<rect x="672.75" y="155.83" fill="#FFFFFF" width="2.59" height="4.605"/>
		<rect x="666.634" y="155.827" fill="#FFFFFF" width="2.59" height="4.606"/>
		<rect x="672.752" y="148.806" fill="#FFFFFF" width="2.59" height="4.606"/>
		<rect x="672.755" y="141.78" fill="#FFFFFF" width="2.59" height="4.606"/>
		<rect x="666.638" y="141.778" fill="#FFFFFF" width="2.591" height="4.605"/>
		<rect x="666.639" y="132.19" fill="#FFFFFF" width="2.589" height="4.607"/>
		<rect x="672.745" y="125.168" fill="#FFFFFF" width="2.59" height="4.607"/>
		<rect x="666.629" y="125.166" fill="#FFFFFF" width="2.59" height="4.605"/>
		<rect x="453.088" y="169.127" fill="#FFFFFF" width="4.607" height="2.59"/>
	</g>
	<g opacity="0.3">
		<g>
			<polygon fill="#6F6FA8" points="22.274,181.553 5.84,181.553 5.84,177.843 43.03,177.843 43.03,177.843 			"/>
			<g>
				<polygon fill="#6565C1" points="22.025,181.553 0.872,181.553 0.872,96.289 22.025,93.114 				"/>
				<rect x="2.876" y="99.701" fill="#FFFFFF" width="14.792" height="3.001"/>
				<rect x="2.876" y="104.595" fill="#FCECD0" width="14.792" height="3"/>
				<rect x="2.876" y="116.348" fill="#FCECD0" width="14.792" height="3.001"/>
				<rect x="2.876" y="121.889" fill="#FCECD0" width="14.792" height="3.001"/>
				<rect x="2.876" y="127.44" fill="#FCECD0" width="14.792" height="3.002"/>
				<rect x="2.876" y="132.981" fill="#FCECD0" width="14.792" height="3.002"/>
				<rect x="2.876" y="138.535" fill="#FCECD0" width="14.792" height="3.001"/>
				<rect x="2.876" y="144.089" fill="#FCECD0" width="14.792" height="3"/>
			</g>
		</g>
		<g>
			<rect x="27.143" y="106.735" fill="#6F6FA8" width="18.464" height="77.134"/>
			<rect x="31.762" y="113.248" fill="#FFFFFF" width="5.167" height="3.797"/>
			<rect x="36.008" y="119.024" fill="#FFFFFF" width="5.168" height="3.798"/>
			<rect x="31.762" y="128.861" fill="#FFFFFF" width="5.167" height="3.797"/>
			<rect x="31.762" y="134.775" fill="#FFFFFF" width="5.167" height="3.797"/>
			<rect x="31.762" y="153.912" fill="#FFFFFF" width="5.167" height="3.798"/>
			<rect x="36.008" y="162.067" fill="#FFFFFF" width="5.168" height="3.798"/>
			<rect x="31.762" y="143.914" fill="#FCECD0" width="5.167" height="3.798"/>
		</g>
		<g>
			<polygon fill="#6F6FA8" points="76.722,186.384 54.336,186.384 54.336,182.113 115.22,182.113 			"/>
			<g>
				<polygon fill="#1A1A54" points="71.804,115.726 71.804,108.205 50.576,108.205 50.576,115.726 45.607,115.726 45.607,186.384 
					76.772,186.384 76.772,115.726 				"/>
				<rect x="48.471" y="122.212" fill="#FFFFFF" width="25.449" height="3.624"/>
				<rect x="48.471" y="133.717" fill="#FFFFFF" width="25.449" height="3.61"/>
				<rect x="48.471" y="139.469" fill="#FFFFFF" width="25.449" height="3.611"/>
				<rect x="48.471" y="145.222" fill="#FFFFFF" width="25.449" height="3.61"/>
				<rect x="48.471" y="150.986" fill="#FFFFFF" width="25.449" height="3.609"/>
				<rect x="48.471" y="162.491" fill="#FFFFFF" width="25.449" height="3.609"/>
				<rect x="48.471" y="168.243" fill="#FFFFFF" width="25.449" height="3.609"/>
				<rect x="48.471" y="173.995" fill="#FFFFFF" width="25.449" height="3.61"/>
			</g>
		</g>
	</g>
	<g opacity="0.3">
		<g>
			<g>
				<rect x="1671.355" y="68.661" fill="#26265E" width="22.388" height="93.567"/>
				<rect x="1673.473" y="75.621" fill="#FFFFFF" width="15.65" height="3.175"/>
				<rect x="1673.473" y="87.361" fill="#FCECD0" width="15.65" height="3.176"/>
				<rect x="1673.473" y="93.239" fill="#FCECD0" width="15.65" height="3.175"/>
				<rect x="1673.473" y="99.104" fill="#FCECD0" width="15.65" height="3.176"/>
				<rect x="1673.473" y="104.98" fill="#FCECD0" width="15.65" height="3.176"/>
				<rect x="1673.473" y="110.845" fill="#FCECD0" width="15.65" height="3.175"/>
				<rect x="1673.473" y="146.255" fill="#FCECD0" width="15.65" height="3.175"/>
				<rect x="1673.473" y="116.722" fill="#FCECD0" width="15.65" height="3.175"/>
				<rect x="1673.473" y="122.586" fill="#FCECD0" width="15.65" height="3.175"/>
			</g>
		</g>
		<g>
			<g>
				<g>
					<rect x="1639.22" y="93.861" fill="#5353A5" width="32.972" height="74.755"/>
				</g>
			</g>
			<g>
				<rect x="1639.22" y="96.464" fill="#FFD0BB" width="28.054" height="1.083"/>
				<rect x="1639.22" y="98.867" fill="#FFD0BB" width="28.054" height="1.083"/>
				<rect x="1639.22" y="101.108" fill="#FFD0BB" width="28.054" height="1.083"/>
				<rect x="1639.22" y="103.361" fill="#FFD0BB" width="28.054" height="1.084"/>
				<rect x="1639.22" y="105.603" fill="#FFD0BB" width="28.054" height="1.083"/>
				<rect x="1639.22" y="107.856" fill="#FFD0BB" width="28.054" height="1.084"/>
				<rect x="1639.22" y="110.022" fill="#FFD0BB" width="28.054" height="1.084"/>
				<rect x="1639.22" y="112.19" fill="#FFD0BB" width="28.054" height="1.082"/>
				<rect x="1639.22" y="114.355" fill="#FFD0BB" width="28.054" height="1.085"/>
				<rect x="1639.22" y="116.534" fill="#FFD0BB" width="28.054" height="1.084"/>
				<rect x="1639.22" y="118.701" fill="#FFD0BB" width="28.054" height="1.083"/>
				<rect x="1639.22" y="120.867" fill="#FFD0BB" width="28.054" height="1.084"/>
				<rect x="1639.22" y="123.047" fill="#FFD0BB" width="28.054" height="1.083"/>
				<rect x="1639.22" y="125.213" fill="#FFD0BB" width="28.054" height="1.083"/>
				<rect x="1639.22" y="127.379" fill="#FFD0BB" width="28.054" height="1.084"/>
				<rect x="1639.22" y="129.546" fill="#FFD0BB" width="28.054" height="1.083"/>
				<rect x="1639.22" y="131.725" fill="#FFD0BB" width="28.054" height="1.083"/>
				<rect x="1639.22" y="133.892" fill="#FFD0BB" width="28.054" height="1.083"/>
				<rect x="1639.22" y="136.058" fill="#FFD0BB" width="28.054" height="1.083"/>
				<rect x="1639.22" y="138.236" fill="#FFD0BB" width="28.054" height="1.083"/>
				<rect x="1639.22" y="140.403" fill="#FFD0BB" width="28.054" height="1.083"/>
				<rect x="1639.22" y="142.569" fill="#FFD0BB" width="28.054" height="1.083"/>
			</g>
		</g>
	</g>
	<g>
		<polygon fill="#041F54" points="1700.791,173.597 1700.791,173.597 1700.791,173.597 1700.791,173.597 1700.791,173.597 
			1700.791,173.597 1700.791,173.597 1700.791,173.597 1700.791,173.597 1700.791,173.597 1700.791,173.597 1700.791,173.597 
			1700.791,173.597 1700.791,173.597 1700.791,173.597 1700.791,173.597 1700.791,173.597 1700.791,173.597 1692.885,173.049 
			1692.885,155.045 1685.252,155.045 1685.252,147.961 1676.885,156.328 1664.496,156.328 1664.496,120.955 1640.329,120.955 
			1640.329,154.397 1603.486,154.397 1603.486,58.576 1585.969,58.576 1585.969,65.648 1576.257,65.648 1576.257,164.047 
			1569.882,164.047 1569.882,120.27 1558.104,108.479 1546.275,120.319 1546.275,147.363 1536.09,147.363 1536.09,128.039 
			1516.105,128.039 1516.105,139.606 1500.879,139.606 1500.879,175.627 1494.629,175.627 1494.629,154.012 1487.046,146.43 
			1479.078,154.397 1460.476,154.397 1460.476,135.336 1452.632,135.336 1445.149,142.831 1418.878,142.831 1418.878,152.468 
			1414.495,152.468 1414.495,144.748 1397.288,144.748 1397.288,178.19 1386.792,178.19 1386.792,167.26 1376.968,167.26 
			1376.968,137.626 1368.663,129.321 1357.619,129.321 1357.619,139.606 1304.84,139.606 1304.84,131.575 1296.797,123.532 
			1296.797,113.248 1268.284,113.248 1268.284,156.328 1261.859,156.328 1261.859,142.184 1244.702,142.184 1244.702,122.25 
			1207.412,122.25 1207.412,149.903 1192.346,149.903 1192.346,140.901 1175.251,140.901 1175.251,120.059 1156.986,120.059 
			1152.217,124.815 1152.217,142.831 1128.859,142.831 1128.859,164.047 1117.28,164.047 1116.844,162.392 1116.844,162.392 
			1113.109,162.392 1110.619,162.392 1108.129,162.392 1106.884,162.392 1101.903,162.392 1096.923,162.392 1091.942,162.392 
			1088.207,162.392 1088.207,162.392 1084.471,162.392 1084.471,162.392 1083.949,162.117 1072.78,162.117 1072.78,137.041 
			1065.833,137.041 1065.833,122.885 1060.753,122.885 1060.753,117.106 1055.15,111.492 1049.821,116.833 1049.821,136.394 
			1044.729,136.394 1044.729,146.679 1035.141,146.679 1035.141,161.47 1020.362,161.47 1020.362,156.328 1004.176,156.328 
			1004.176,146.679 986.82,146.679 986.82,153.763 975.887,153.763 975.887,159.54 961.731,159.54 961.731,196.208 954.982,196.208 
			954.982,209.704 1700.791,209.704 		"/>
		<rect x="1233.447" y="127.628" fill="#FFFFFF" width="6.113" height="2.59"/>
		<rect x="1233.447" y="133.742" fill="#FFFFFF" width="6.113" height="2.589"/>
		<rect x="1233.447" y="139.855" fill="#FFFFFF" width="6.113" height="2.591"/>
		<rect x="1167.743" y="124.74" fill="#FFFFFF" width="3.485" height="2.589"/>
		<rect x="1167.743" y="130.854" fill="#FFFFFF" width="3.485" height="2.591"/>
		<rect x="1167.743" y="136.979" fill="#FFFFFF" width="3.485" height="2.59"/>
		<rect x="1160.51" y="124.74" fill="#FFFFFF" width="3.486" height="2.589"/>
		<rect x="1160.51" y="130.854" fill="#FFFFFF" width="3.486" height="2.591"/>
		<rect x="1160.51" y="136.979" fill="#FFFFFF" width="3.486" height="2.59"/>
		<rect x="1141.373" y="145.956" fill="#FFFFFF" width="3.485" height="2.59"/>
		<rect x="1141.373" y="152.069" fill="#FFFFFF" width="3.485" height="2.59"/>
		<rect x="1141.373" y="158.195" fill="#FFFFFF" width="3.485" height="2.59"/>
		<rect x="1134.138" y="145.956" fill="#FFFFFF" width="3.486" height="2.59"/>
		<rect x="1134.138" y="152.069" fill="#FFFFFF" width="3.486" height="2.59"/>
		<rect x="1134.138" y="158.195" fill="#FFFFFF" width="3.486" height="2.59"/>
		<rect x="1162.377" y="158.195" fill="#FFFFFF" width="3.486" height="2.59"/>
		<rect x="1155.143" y="152.069" fill="#FFFFFF" width="3.485" height="2.59"/>
		<rect x="1155.143" y="158.195" fill="#FFFFFF" width="3.485" height="2.59"/>
		<rect x="1183.395" y="152.069" fill="#FFFFFF" width="3.485" height="2.59"/>
		<rect x="1183.395" y="158.195" fill="#FFFFFF" width="3.485" height="2.59"/>
		<rect x="1176.146" y="152.069" fill="#FFFFFF" width="3.486" height="2.59"/>
		<rect x="1176.146" y="158.195" fill="#FFFFFF" width="3.486" height="2.59"/>
		<rect x="1204.398" y="152.069" fill="#FFFFFF" width="3.485" height="2.59"/>
		<rect x="1204.398" y="158.195" fill="#FFFFFF" width="3.485" height="2.59"/>
		<rect x="1197.152" y="158.195" fill="#FFFFFF" width="3.485" height="2.59"/>
		<rect x="1225.403" y="152.069" fill="#FFFFFF" width="3.485" height="2.59"/>
		<rect x="1218.17" y="152.069" fill="#FFFFFF" width="3.486" height="2.59"/>
		<rect x="1218.17" y="158.195" fill="#FFFFFF" width="3.486" height="2.59"/>
		<rect x="1246.408" y="152.069" fill="#FFFFFF" width="3.485" height="2.59"/>
		<rect x="1246.408" y="158.195" fill="#FFFFFF" width="3.485" height="2.59"/>
		<rect x="1239.174" y="152.069" fill="#FFFFFF" width="3.486" height="2.59"/>
		<rect x="1066.58" y="143.143" fill="#FFFFFF" width="3.486" height="2.591"/>
		<rect x="1066.58" y="149.256" fill="#FFFFFF" width="3.486" height="2.59"/>
		<rect x="1066.58" y="155.369" fill="#FFFFFF" width="3.486" height="2.59"/>
		<rect x="1059.334" y="143.143" fill="#FFFFFF" width="3.486" height="2.591"/>
		<rect x="1059.334" y="149.256" fill="#FFFFFF" width="3.486" height="2.59"/>
		<rect x="1059.334" y="155.369" fill="#FFFFFF" width="3.486" height="2.59"/>
		<rect x="973.845" y="164.271" fill="#FFFFFF" width="3.486" height="2.591"/>
		<rect x="973.845" y="176.511" fill="#FFFFFF" width="3.486" height="2.59"/>
		<rect x="966.599" y="164.271" fill="#FFFFFF" width="3.486" height="2.591"/>
		<rect x="966.599" y="170.385" fill="#FFFFFF" width="3.486" height="2.59"/>
		<rect x="988.326" y="164.271" fill="#FFFFFF" width="3.486" height="2.591"/>
		<rect x="988.326" y="176.511" fill="#FFFFFF" width="3.486" height="2.59"/>
		<rect x="981.08" y="164.271" fill="#FFFFFF" width="3.486" height="2.591"/>
		<rect x="981.08" y="170.385" fill="#FFFFFF" width="3.486" height="2.59"/>
		<rect x="981.08" y="176.511" fill="#FFFFFF" width="3.486" height="2.59"/>
		<rect x="1002.806" y="164.271" fill="#FFFFFF" width="3.486" height="2.591"/>
		<rect x="1002.806" y="170.385" fill="#FFFFFF" width="3.486" height="2.59"/>
		<rect x="995.56" y="170.385" fill="#FFFFFF" width="3.486" height="2.59"/>
		<rect x="995.56" y="176.511" fill="#FFFFFF" width="3.486" height="2.59"/>
		<rect x="1017.287" y="164.271" fill="#FFFFFF" width="3.486" height="2.591"/>
		<rect x="1010.041" y="164.271" fill="#FFFFFF" width="3.486" height="2.591"/>
		<rect x="1010.041" y="170.385" fill="#FFFFFF" width="3.486" height="2.59"/>
		<rect x="1010.041" y="176.511" fill="#FFFFFF" width="3.486" height="2.59"/>
		<rect x="1272.169" y="117.331" fill="#FFFFFF" width="4.606" height="2.59"/>
		<rect x="1272.169" y="123.445" fill="#FFFFFF" width="4.606" height="2.59"/>
		<rect x="1272.169" y="129.57" fill="#FFFFFF" width="4.606" height="2.59"/>
		<rect x="1279.191" y="117.331" fill="#FFFFFF" width="4.605" height="2.59"/>
		<rect x="1279.191" y="123.445" fill="#FFFFFF" width="4.605" height="2.59"/>
		<rect x="1279.191" y="129.57" fill="#FFFFFF" width="4.605" height="2.59"/>
		<rect x="1286.214" y="117.331" fill="#FFFFFF" width="4.606" height="2.59"/>
		<rect x="1286.214" y="123.445" fill="#FFFFFF" width="4.606" height="2.59"/>
		<rect x="1286.214" y="129.57" fill="#FFFFFF" width="4.606" height="2.59"/>
		<rect x="1423.472" y="147.251" fill="#FFFFFF" width="4.606" height="2.59"/>
		<rect x="1423.472" y="153.364" fill="#FFFFFF" width="4.606" height="2.59"/>
		<rect x="1423.472" y="159.478" fill="#FFFFFF" width="4.606" height="2.591"/>
		<rect x="1430.494" y="147.251" fill="#FFFFFF" width="4.607" height="2.59"/>
		<rect x="1430.494" y="153.364" fill="#FFFFFF" width="4.607" height="2.59"/>
		<rect x="1430.494" y="159.478" fill="#FFFFFF" width="4.607" height="2.591"/>
		<rect x="1437.516" y="147.251" fill="#FFFFFF" width="4.606" height="2.59"/>
		<rect x="1437.516" y="153.364" fill="#FFFFFF" width="4.606" height="2.59"/>
		<rect x="1437.516" y="159.478" fill="#FFFFFF" width="4.606" height="2.591"/>
		<rect x="1461.111" y="159.478" fill="#FFFFFF" width="4.605" height="2.591"/>
		<rect x="1461.111" y="165.604" fill="#FFFFFF" width="4.605" height="2.591"/>
		<rect x="1461.111" y="171.717" fill="#FFFFFF" width="4.605" height="2.59"/>
		<rect x="1468.134" y="159.478" fill="#FFFFFF" width="4.606" height="2.591"/>
		<rect x="1468.134" y="165.604" fill="#FFFFFF" width="4.606" height="2.591"/>
		<rect x="1468.134" y="171.717" fill="#FFFFFF" width="4.606" height="2.59"/>
		<rect x="1475.168" y="159.478" fill="#FFFFFF" width="4.607" height="2.591"/>
		<rect x="1475.168" y="165.604" fill="#FFFFFF" width="4.607" height="2.591"/>
		<rect x="1475.168" y="171.717" fill="#FFFFFF" width="4.607" height="2.59"/>
		<rect x="1305.636" y="150.787" fill="#FFFFFF" width="4.607" height="2.59"/>
		<rect x="1305.636" y="156.9" fill="#FFFFFF" width="4.607" height="2.59"/>
		<rect x="1312.659" y="144.661" fill="#FFFFFF" width="4.605" height="2.59"/>
		<rect x="1312.659" y="150.787" fill="#FFFFFF" width="4.605" height="2.59"/>
		<rect x="1319.694" y="144.661" fill="#FFFFFF" width="4.605" height="2.59"/>
		<rect x="1319.694" y="150.787" fill="#FFFFFF" width="4.605" height="2.59"/>
		<rect x="1319.694" y="156.9" fill="#FFFFFF" width="4.605" height="2.59"/>
		<rect x="1329.281" y="144.661" fill="#FFFFFF" width="4.605" height="2.59"/>
		<rect x="1329.281" y="156.9" fill="#FFFFFF" width="4.605" height="2.59"/>
		<rect x="1336.303" y="144.661" fill="#FFFFFF" width="4.606" height="2.59"/>
		<rect x="1336.303" y="150.787" fill="#FFFFFF" width="4.606" height="2.59"/>
		<rect x="1336.303" y="156.9" fill="#FFFFFF" width="4.606" height="2.59"/>
		<rect x="1343.326" y="144.661" fill="#FFFFFF" width="4.605" height="2.59"/>
		<rect x="1343.326" y="150.787" fill="#FFFFFF" width="4.605" height="2.59"/>
		<rect x="1305.636" y="169.127" fill="#FFFFFF" width="4.607" height="2.59"/>
		<rect x="1305.636" y="175.24" fill="#FFFFFF" width="4.607" height="2.59"/>
		<rect x="1312.659" y="169.127" fill="#FFFFFF" width="4.605" height="2.59"/>
		<rect x="1319.694" y="169.127" fill="#FFFFFF" width="4.605" height="2.59"/>
		<rect x="1319.694" y="175.24" fill="#FFFFFF" width="4.605" height="2.59"/>
		<rect x="1329.281" y="175.24" fill="#FFFFFF" width="4.605" height="2.59"/>
		<rect x="1336.303" y="169.127" fill="#FFFFFF" width="4.606" height="2.59"/>
		<rect x="1336.303" y="175.24" fill="#FFFFFF" width="4.606" height="2.59"/>
		<rect x="1508.188" y="163.836" fill="#FFFFFF" width="4.606" height="2.59"/>
		<rect x="1508.188" y="169.949" fill="#FFFFFF" width="4.606" height="2.59"/>
		<rect x="1515.222" y="157.722" fill="#FFFFFF" width="4.606" height="2.59"/>
		<rect x="1515.222" y="163.836" fill="#FFFFFF" width="4.606" height="2.59"/>
		<rect x="1522.245" y="157.722" fill="#FFFFFF" width="4.605" height="2.59"/>
		<rect x="1522.245" y="163.836" fill="#FFFFFF" width="4.605" height="2.59"/>
		<rect x="1522.245" y="169.949" fill="#FFFFFF" width="4.605" height="2.59"/>
		<rect x="1531.832" y="157.722" fill="#FFFFFF" width="4.607" height="2.59"/>
		<rect x="1531.832" y="169.949" fill="#FFFFFF" width="4.607" height="2.59"/>
		<rect x="1538.854" y="157.722" fill="#FFFFFF" width="4.606" height="2.59"/>
		<rect x="1538.854" y="163.836" fill="#FFFFFF" width="4.606" height="2.59"/>
		<rect x="1538.854" y="169.949" fill="#FFFFFF" width="4.606" height="2.59"/>
		<rect x="1579.931" y="106.685" fill="#FFFFFF" width="2.591" height="4.606"/>
		<rect x="1586.047" y="106.687" fill="#FFFFFF" width="2.59" height="4.607"/>
		<rect x="1579.933" y="99.66" fill="#FFFFFF" width="2.591" height="4.605"/>
		<rect x="1579.936" y="92.635" fill="#FFFFFF" width="2.59" height="4.607"/>
		<rect x="1586.052" y="92.638" fill="#FFFFFF" width="2.59" height="4.606"/>
		<rect x="1586.052" y="83.05" fill="#FFFFFF" width="2.59" height="4.606"/>
		<rect x="1579.927" y="76.023" fill="#FFFFFF" width="2.589" height="4.606"/>
		<rect x="1586.042" y="76.025" fill="#FFFFFF" width="2.59" height="4.605"/>
		<rect x="1586.427" y="149.346" fill="#FFFFFF" width="2.59" height="4.607"/>
		<rect x="1592.543" y="149.349" fill="#FFFFFF" width="2.59" height="4.606"/>
		<rect x="1586.429" y="142.321" fill="#FFFFFF" width="2.59" height="4.605"/>
		<rect x="1586.431" y="135.297" fill="#FFFFFF" width="2.591" height="4.606"/>
		<rect x="1592.548" y="135.299" fill="#FFFFFF" width="2.59" height="4.606"/>
		<rect x="1647.017" y="142.323" fill="#FFFFFF" width="2.591" height="4.605"/>
		<rect x="1653.133" y="142.325" fill="#FFFFFF" width="2.59" height="4.605"/>
		<rect x="1647.02" y="135.298" fill="#FFFFFF" width="2.59" height="4.606"/>
		<rect x="1647.01" y="128.274" fill="#FFFFFF" width="2.59" height="4.605"/>
		<rect x="1653.125" y="128.275" fill="#FFFFFF" width="2.59" height="4.606"/>
		<rect x="1592.536" y="125.712" fill="#FFFFFF" width="2.59" height="4.606"/>
		<rect x="1586.422" y="118.685" fill="#FFFFFF" width="2.59" height="4.606"/>
		<rect x="1592.538" y="118.687" fill="#FFFFFF" width="2.59" height="4.607"/>
		<rect x="1647.152" y="161.246" fill="#FFFFFF" width="4.605" height="2.59"/>
		<rect x="1647.152" y="167.359" fill="#FFFFFF" width="4.605" height="2.59"/>
		<rect x="1654.175" y="161.246" fill="#FFFFFF" width="4.606" height="2.59"/>
		<rect x="1661.196" y="161.246" fill="#FFFFFF" width="4.606" height="2.59"/>
		<rect x="1661.196" y="167.359" fill="#FFFFFF" width="4.606" height="2.59"/>
		<rect x="1670.784" y="167.359" fill="#FFFFFF" width="4.605" height="2.59"/>
		<rect x="1677.806" y="161.246" fill="#FFFFFF" width="4.606" height="2.59"/>
		<rect x="1677.806" y="167.359" fill="#FFFFFF" width="4.606" height="2.59"/>
		<rect x="1562.987" y="155.83" fill="#FFFFFF" width="2.59" height="4.605"/>
		<rect x="1556.872" y="155.827" fill="#FFFFFF" width="2.59" height="4.606"/>
		<rect x="1562.99" y="148.806" fill="#FFFFFF" width="2.59" height="4.606"/>
		<rect x="1562.992" y="141.78" fill="#FFFFFF" width="2.59" height="4.606"/>
		<rect x="1556.877" y="141.778" fill="#FFFFFF" width="2.59" height="4.605"/>
		<rect x="1556.877" y="132.19" fill="#FFFFFF" width="2.59" height="4.607"/>
		<rect x="1562.982" y="125.168" fill="#FFFFFF" width="2.59" height="4.607"/>
		<rect x="1556.867" y="125.166" fill="#FFFFFF" width="2.59" height="4.605"/>
		<rect x="1343.326" y="169.127" fill="#FFFFFF" width="4.605" height="2.59"/>
	</g>
	<rect y="171.106" fill="#041F54" width="1700.791" height="38.599"/>
	<g>
		<path opacity="0.5" fill="#26265E" enable-background="new    " d="M32.422,181.117c0,4.52-3.859,8.191-8.628,8.191
			s-8.629-3.659-8.629-8.191c0-4.521,3.86-8.192,8.629-8.192S32.422,176.598,32.422,181.117z"/>
		<path fill="#FFFFFF" d="M31.551,181.117c0,4.52-3.859,8.191-8.629,8.191c-4.769,0-8.628-3.659-8.628-8.191
			c0-4.521,3.859-8.192,8.628-8.192C27.678,172.925,31.551,176.598,31.551,181.117z"/>
		<polygon fill="#FF8F6C" points="24.814,197.864 21.03,197.864 23.021,181.143 		"/>
	</g>
	<path fill="#6F6FA8" d="M13.248,173.423c0-2.739-2.216-4.956-4.955-4.956c-2.739,0-4.956,2.217-4.956,4.956
		c0,2.564,1.955,4.682,4.458,4.931l-0.586,5.204h2.167l-0.535-5.204C11.318,178.067,13.248,175.976,13.248,173.423z"/>
	<g>
		<path fill="#6F6FA8" d="M160.38,171.119c0-2.641-2.142-4.77-4.769-4.77c-2.64,0-4.769,2.143-4.769,4.77
			c0,2.478,1.88,4.508,4.296,4.744l-0.561,5.005h2.092l-0.511-5.019C158.524,175.589,160.38,173.572,160.38,171.119z"/>
		<path fill="#6F6FA8" d="M190.499,173.522c0-1.979-1.606-3.599-3.586-3.599s-3.599,1.606-3.599,3.599
			c0,1.855,1.42,3.399,3.237,3.573l-0.423,3.772h1.581l-0.386-3.772C189.104,176.896,190.499,175.378,190.499,173.522z"/>
		<path fill="#6F6FA8" d="M13.46,172.825c0-2.715-2.204-4.918-4.906-4.918c-2.714,0-4.918,2.203-4.918,4.918
			c0,2.54,1.942,4.645,4.42,4.894l-0.585,5.154h2.154l-0.523-5.167C11.554,177.432,13.46,175.353,13.46,172.825z"/>
	</g>
	<g>
		<path fill="#6F6FA8" d="M1506.058,175.34c0-3.461-2.801-6.25-6.25-6.25c-3.462,0-6.263,2.802-6.263,6.25
			c0,3.237,2.465,5.902,5.628,6.227l-0.747,6.562h2.739l-0.673-6.574C1503.631,181.204,1506.058,178.553,1506.058,175.34z"/>
		<path fill="#6F6FA8" d="M1483.697,174.083c0-2.853-2.305-5.155-5.155-5.155s-5.154,2.304-5.154,5.155
			c0,2.677,2.029,4.868,4.632,5.129l-0.609,5.417h2.254l-0.548-5.417C1481.692,178.926,1483.697,176.734,1483.697,174.083z"/>
	</g>
</g>
</svg>
