<svg xmlns="http://www.w3.org/2000/svg" xmlns:xlink="http://www.w3.org/1999/xlink" viewBox="0 0 768 500"><defs><style>.cls-1{fill:none;}.cls-2{isolation:isolate;}.cls-3{fill:url(#linear-gradient);}.cls-4,.cls-5{opacity:0.43;mix-blend-mode:color-dodge;}.cls-4{fill:url(#linear-gradient-2);}.cls-5{fill:url(#linear-gradient-3);}.cls-6{fill:#6b40ea;mix-blend-mode:screen;}.cls-7{fill:#fbc93b;mix-blend-mode:overlay;}.cls-8{clip-path:url(#clip-path);}</style><linearGradient id="linear-gradient" x1="686.01" y1="1.21" x2="191.79" y2="408.34" gradientUnits="userSpaceOnUse"><stop offset="0" stop-color="#9b40e0"/><stop offset="1" stop-color="#0028a2"/></linearGradient><linearGradient id="linear-gradient-2" x1="146.27" y1="534.87" x2="584.59" y2="9.64" gradientUnits="userSpaceOnUse"><stop offset="0" stop-opacity="0"/><stop offset="0.08" stop-color="#010708" stop-opacity="0.03"/><stop offset="0.21" stop-color="#031b1e" stop-opacity="0.12"/><stop offset="0.36" stop-color="#073b41" stop-opacity="0.26"/><stop offset="0.53" stop-color="#0c6773" stop-opacity="0.45"/><stop offset="0.73" stop-color="#12a0b2" stop-opacity="0.7"/><stop offset="0.94" stop-color="#1ae4fe"/><stop offset="0.94" stop-color="#1ae5ff"/></linearGradient><linearGradient id="linear-gradient-3" x1="477.78" y1="158.69" x2="-106.11" y2="403.24" xlink:href="#linear-gradient-2"/><clipPath id="clip-path"><path class="cls-1" d="M759.66,500H8.34a8.67,8.67,0,0,1-8.67-8.67V8.67A8.67,8.67,0,0,1,8.34,0H759.66l8.7,0,0,8.63V491.33A8.67,8.67,0,0,1,759.66,500Z"/></clipPath></defs><title>background3</title><g class="cls-2"><g id="Layer_1" data-name="Layer 1"><rect class="cls-3" x="-0.33" width="768.66" height="500"/><path class="cls-4" d="M768.33,500V440.86C677.56,397.45,567.67,328,479.46,221.08,381.47,102.3,245.66,36,139.75,0H-0.33V500H768.33Z"/><path class="cls-5" d="M-0.33,80.26V500H328.25C286.79,241.18,112.41,127.48-.33,80.26Z"/><circle class="cls-6" cx="552.22" cy="86.13" r="3.11"/><circle class="cls-6" cx="624.98" cy="195.27" r="3.11"/><circle class="cls-6" cx="643.33" cy="64.83" r="3.11"/><circle class="cls-6" cx="595.29" cy="160.45" r="1.71"/><circle class="cls-6" cx="459.4" cy="145.83" r="1.71"/><circle class="cls-6" cx="715.78" cy="202.43" r="1.79"/><circle class="cls-7" cx="726.74" cy="223.41" r="1.79"/><circle class="cls-7" cx="694.01" cy="184.78" r="0.93"/><circle class="cls-7" cx="605.08" cy="215.8" r="0.93"/><circle class="cls-7" cx="539.47" cy="129.66" r="0.93"/><circle class="cls-7" cx="620.32" cy="108.83" r="0.93"/><circle class="cls-7" cx="743.14" cy="251.87" r="0.93"/><circle class="cls-7" cx="430.95" cy="159.05" r="0.93"/><circle class="cls-7" cx="406.7" cy="224.35" r="0.93"/><circle class="cls-6" cx="381.51" cy="135.34" r="1.79"/><circle class="cls-6" cx="741.2" cy="89.09" r="1.79"/><circle class="cls-6" cx="431.89" cy="231.89" r="1.79"/><g class="cls-8"><circle class="cls-6" cx="730.39" cy="3.73" r="168.84"/><circle class="cls-6" cx="730.39" cy="3.73" r="118.47"/><circle class="cls-6" cx="728.36" cy="5.27" r="73.69"/></g><circle class="cls-6" cx="473.06" cy="150.38" r="2"/><circle class="cls-6" cx="426.29" cy="80.22" r="2"/><circle class="cls-6" cx="414.5" cy="164.07" r="2"/><circle class="cls-6" cx="445.38" cy="102.61" r="1.1"/><circle class="cls-6" cx="532.72" cy="112" r="1.1"/><circle class="cls-6" cx="367.93" cy="75.63" r="1.15"/><circle class="cls-7" cx="360.88" cy="62.14" r="1.15"/><circle class="cls-7" cx="381.92" cy="86.97" r="0.6"/><circle class="cls-7" cx="439.08" cy="67.03" r="0.6"/><circle class="cls-7" cx="481.25" cy="122.4" r="0.6"/><circle class="cls-7" cx="429.29" cy="135.79" r="0.6"/><circle class="cls-7" cx="350.34" cy="43.85" r="0.6"/><circle class="cls-7" cx="551.01" cy="103.51" r="0.6"/><circle class="cls-7" cx="566.6" cy="61.54" r="0.6"/><circle class="cls-6" cx="582.79" cy="118.75" r="1.15"/><circle class="cls-6" cx="351.59" cy="148.48" r="1.15"/><circle class="cls-6" cx="550.41" cy="56.69" r="1.15"/></g></g></svg>